<?xml version="1.0" encoding="UTF-8"?>
<svg data-bbox="0 2 630 630" viewBox="0 0 631 632" height="842.667" width="841.333" xmlns="http://www.w3.org/2000/svg" data-type="shape">
    <g>
        <path d="M0 317v315h630V2H0v315zm223.9-84.9c12.2 12.1 21.9 22.5 21.6 23-.4.5-3.3.9-6.6.9H233v5.9c0 3.3-.4 6.2-.8 6.5-.5.3-10.8-9.5-23-21.7L187 224.4v-6.5c0-3.6.3-6.9.7-7.2.3-.4 3.7-.7 7.4-.7h6.7l22.1 22.1zm217.9-14.7.3 7-22.2 22.2c-12.3 12.3-22.6 22.1-23.1 21.8-.4-.3-.8-3.2-.8-6.5V256h-5.9c-3.3 0-6.2-.4-6.5-.9-.3-.5 9.4-10.8 21.5-23l22.1-22.2 7.2.3 7.1.3.3 6.9zm-54.4 46.2c1.2.5 1.6 2.1 1.6 7.3v6.6l-55.7 55.8C289 377.6 277.8 389.2 279 390c.8.5 5 1 9.3 1 5.5 0 7.7.4 7.7 1.2.4 10.3.2 17.7-.4 18.7-1 1.5-52.4 1.5-54.3-.1-2-1.6-1.7-11.8.5-14.8.9-1.4 25.9-26.7 55.5-56.3 29.6-29.5 53.5-54.2 53.2-54.7-.4-.6-19.8-1-55-1-48.6 0-54.3-.2-54.9-1.6-1.1-2.9-.7-16.9.6-18.2.9-.9 18.5-1.2 72.9-1.2 39.5 0 72.4.3 73.3.6zm-103.9 28.7c2.8 1.5 24.5 23.8 24.5 25.1 0 1.7-12.6 13.9-13.9 13.5-1.4-.5-38.1-37.1-38.1-38 0-.4.6-1 1.3-1.2 2.3-1 24.2-.5 26.2.6zm41.3 117.8-.3 54.4h-20l-.3-45.5-.2-45.4 9.7-9.8c5.4-5.4 10.1-9.4 10.5-9 .5.5.7 25.3.6 55.3zm63.6-17.5c1.2 3 .7 17.1-.6 18.2-1.7 1.3-52.6 1.7-54.1.3-.8-.6-1.1-4.1-.9-10.5l.3-9.6h27.4c24 0 27.4.2 27.9 1.6z"/>
    </g>
</svg>
